# xmcd CD database file
# Copyright (C) 1993-1998 Ti Kan
#
# Track frame offsets:
#	182
#	13727
#	30287
#	42172
#	57742
#	76555
#	91515
#	112842
#	127057
#	158170
#	179540
#	194022
#	213400
#	237802
#	255662
#
# Disc length: 4241 seconds
#
# Revision: 0
# Processed by: cddbd v1.4b41PL1 Copyright (c) Steve Scherf et al.
# Submitted via: CDmax 1.5
#
DISCID=bc108f0f
DTITLE=Fly and The Tox - Live
DYEAR=1900
DGENRE=
TTITLE0=Never Alone
TTITLE1=Il Marche Seul
TTITLE2=Bayou LaFourche
TTITLE3=C'Que c'est bon
TTITLE4=Mamama
TTITLE5=Adultere
TTITLE6=Love and Champagne
TTITLE7=Senorita
TTITLE8=Magic Shoes
TTITLE9=Stupid girl
TTITLE10=Anymore
TTITLE11=C'est L'Amour
TTITLE12=A Woutini Saharaoui
TTITLE13=Yo!
TTITLE14=Masse Wandido
EXTD=
EXTT0=
EXTT1=
EXTT2=
EXTT3=
EXTT4=
EXTT5=
EXTT6=
EXTT7=
EXTT8=
EXTT9=
EXTT10=
EXTT11=
EXTT12=
EXTT13=
EXTT14=
PLAYORDER=
